# xmcd
#
# Track frame offsets: 
#        150
#        34572
#        66390
#        93585
#        129352
#        152900
#        181170
#        201775
#        223012
#        239932
#
# Disc length: 3687 seconds
#
# Revision: 2
# Processed by: cddbd v1.5.2PL0 Copyright (c) Steve Scherf et al.
# Submitted via: ExactAudioCopy v1.0b3
#
DISCID=920e650a
DTITLE=Huong Lan - Nhung Tinh Khuc Yeu Cau
DYEAR=1993
DGENRE=
TTITLE0=Tam anh ngay xua
TTITLE1=Bien man
TTITLE2=Nhat ky doi toi
TTITLE3=Mau nhuom bai Thuong Hai
TTITLE4=Phan ma hong
TTITLE5=Cuon theo chieu gio (Loi ve dat Me)
TTITLE6=Muoi nam chuyen cu
TTITLE7=Tam anh khong hon
TTITLE8=Noi buon gac tro
TTITLE9=Xe hoa mot chuyen
EXTD=
EXTT0=Bien Man
EXTT1=
EXTT2=
EXTT3=
EXTT4=
EXTT5=
EXTT6=
EXTT7=
EXTT8=
EXTT9=
PLAYORDER=
